<svg width="392" height="347" viewBox="0 0 392 347" fill="none" xmlns="http://www.w3.org/2000/svg">
<path d="M138.864 148.295V157.143" stroke="#42A0F0" stroke-linecap="round"/>
<path d="M138.672 150.454L140.111 149.734" stroke="#42A0F0" stroke-linecap="round"/>
<path d="M138.672 150.454L136.513 149.734" stroke="#42A0F0" stroke-linecap="round"/>
<path d="M138.672 155.492L140.111 156.212" stroke="#42A0F0" stroke-linecap="round"/>
<path d="M138.672 155.492L136.513 156.212" stroke="#42A0F0" stroke-linecap="round"/>
<path d="M142.674 150.543L135.011 154.967" stroke="#42A0F0" stroke-linecap="round"/>
<path d="M140.792 151.609L142.916 152.142" stroke="#42A0F0" stroke-linecap="round"/>
<path d="M140.792 151.61L141.368 149.461" stroke="#42A0F0" stroke-linecap="round"/>
<path d="M136.705 153.969L136.105 156.075" stroke="#42A0F0" stroke-linecap="round"/>
<path d="M136.705 153.97L134.556 153.394" stroke="#42A0F0" stroke-linecap="round"/>
<path d="M142.631 154.967L134.968 150.543" stroke="#42A0F0" stroke-linecap="round"/>
<path d="M140.767 153.87L141.367 155.976" stroke="#42A0F0" stroke-linecap="round"/>
<path d="M140.767 153.871L142.916 153.295" stroke="#42A0F0" stroke-linecap="round"/>
<path d="M136.68 151.51L134.555 152.043" stroke="#42A0F0" stroke-linecap="round"/>
<path d="M136.68 151.511L136.104 149.362" stroke="#42A0F0" stroke-linecap="round"/>
<path d="M260.934 167.885V183.053" stroke="#42A0F0" stroke-linecap="round"/>
<path d="M260.302 171.325L263.181 170.605" stroke="#42A0F0" stroke-linecap="round"/>
<path d="M260.302 171.325L256.703 170.605" stroke="#42A0F0" stroke-linecap="round"/>
<path d="M260.302 179.961L263.181 181.4" stroke="#42A0F0" stroke-linecap="round"/>
<path d="M260.302 179.961L256.703 181.4" stroke="#42A0F0" stroke-linecap="round"/>
<path d="M267.465 171.738L254.329 179.322" stroke="#42A0F0" stroke-linecap="round"/>
<path d="M264.24 173.565L267.881 174.479" stroke="#42A0F0" stroke-linecap="round"/>
<path d="M264.24 173.566L265.227 169.883" stroke="#42A0F0" stroke-linecap="round"/>
<path d="M257.234 177.609L256.205 181.219" stroke="#42A0F0" stroke-linecap="round"/>
<path d="M257.234 177.61L253.551 176.623" stroke="#42A0F0" stroke-linecap="round"/>
<path d="M267.393 179.322L254.257 171.738" stroke="#42A0F0" stroke-linecap="round"/>
<path d="M264.198 177.441L265.227 181.051" stroke="#42A0F0" stroke-linecap="round"/>
<path d="M264.198 177.442L267.881 176.455" stroke="#42A0F0" stroke-linecap="round"/>
<path d="M257.192 173.396L253.551 174.311" stroke="#42A0F0" stroke-linecap="round"/>
<path d="M257.192 173.397L256.205 169.714" stroke="#42A0F0" stroke-linecap="round"/>
<path d="M349.59 191.439V203.892" stroke="#42A0F0" stroke-linecap="round"/>
<path d="M348.945 194.161L351.104 193.441" stroke="#42A0F0" stroke-linecap="round"/>
<path d="M348.945 194.161L346.066 193.441" stroke="#42A0F0" stroke-linecap="round"/>
<path d="M348.945 201.357L351.104 202.796" stroke="#42A0F0" stroke-linecap="round"/>
<path d="M348.945 201.357L346.066 202.796" stroke="#42A0F0" stroke-linecap="round"/>
<path d="M354.953 194.605L344.169 200.832" stroke="#42A0F0" stroke-linecap="round"/>
<path d="M352.304 196.105L355.294 196.856" stroke="#42A0F0" stroke-linecap="round"/>
<path d="M352.304 196.104L353.115 193.08" stroke="#42A0F0" stroke-linecap="round"/>
<path d="M346.553 199.426L345.708 202.39" stroke="#42A0F0" stroke-linecap="round"/>
<path d="M346.553 199.425L343.528 198.615" stroke="#42A0F0" stroke-linecap="round"/>
<path d="M354.893 200.83L344.108 194.604" stroke="#42A0F0" stroke-linecap="round"/>
<path d="M352.27 199.288L353.115 202.252" stroke="#42A0F0" stroke-linecap="round"/>
<path d="M352.27 199.287L355.294 198.477" stroke="#42A0F0" stroke-linecap="round"/>
<path d="M346.518 195.967L343.528 196.717" stroke="#42A0F0" stroke-linecap="round"/>
<path d="M346.518 195.966L345.708 192.942" stroke="#42A0F0" stroke-linecap="round"/>
<path d="M43.3335 244.227V255.196" stroke="#42A0F0" stroke-linecap="round"/>
<path d="M42.7476 246.949L44.9066 246.229" stroke="#42A0F0" stroke-linecap="round"/>
<path d="M42.7474 246.949L40.5884 246.229" stroke="#42A0F0" stroke-linecap="round"/>
<path d="M42.7476 252.705L44.9066 254.144" stroke="#42A0F0" stroke-linecap="round"/>
<path d="M42.7474 252.705L40.5884 254.144" stroke="#42A0F0" stroke-linecap="round"/>
<path d="M48.0571 247.014L38.5577 252.498" stroke="#42A0F0" stroke-linecap="round"/>
<path d="M45.7243 248.336L48.3576 248.997" stroke="#42A0F0" stroke-linecap="round"/>
<path d="M45.7242 248.336L46.438 245.672" stroke="#42A0F0" stroke-linecap="round"/>
<path d="M40.6572 251.262L39.913 253.873" stroke="#42A0F0" stroke-linecap="round"/>
<path d="M40.6571 251.261L37.9934 250.547" stroke="#42A0F0" stroke-linecap="round"/>
<path d="M48.0044 252.498L38.505 247.014" stroke="#42A0F0" stroke-linecap="round"/>
<path d="M45.6931 251.14L46.4373 253.751" stroke="#42A0F0" stroke-linecap="round"/>
<path d="M45.6932 251.14L48.3569 250.426" stroke="#42A0F0" stroke-linecap="round"/>
<path d="M40.626 248.215L37.9927 248.876" stroke="#42A0F0" stroke-linecap="round"/>
<path d="M40.6261 248.214L39.9123 245.55" stroke="#42A0F0" stroke-linecap="round"/>
<path d="M198.942 286.166V295.063" stroke="#42A0F0" stroke-linecap="round"/>
<path d="M198.726 288.167L200.165 287.447" stroke="#42A0F0" stroke-linecap="round"/>
<path d="M198.725 288.167L196.566 287.447" stroke="#42A0F0" stroke-linecap="round"/>
<path d="M198.726 293.205L200.165 293.925" stroke="#42A0F0" stroke-linecap="round"/>
<path d="M198.725 293.205L196.566 293.925" stroke="#42A0F0" stroke-linecap="round"/>
<path d="M202.773 288.428L195.068 292.876" stroke="#42A0F0" stroke-linecap="round"/>
<path d="M200.881 289.5L203.017 290.036" stroke="#42A0F0" stroke-linecap="round"/>
<path d="M200.881 289.501L201.46 287.34" stroke="#42A0F0" stroke-linecap="round"/>
<path d="M196.772 291.873L196.168 293.991" stroke="#42A0F0" stroke-linecap="round"/>
<path d="M196.772 291.874L194.611 291.295" stroke="#42A0F0" stroke-linecap="round"/>
<path d="M202.731 292.875L195.026 288.426" stroke="#42A0F0" stroke-linecap="round"/>
<path d="M200.856 291.771L201.46 293.889" stroke="#42A0F0" stroke-linecap="round"/>
<path d="M200.856 291.772L203.017 291.193" stroke="#42A0F0" stroke-linecap="round"/>
<path d="M196.747 289.398L194.611 289.934" stroke="#42A0F0" stroke-linecap="round"/>
<path d="M196.747 289.399L196.168 287.238" stroke="#42A0F0" stroke-linecap="round"/>
<g filter="url(#filter0_f_4_189)">
<path d="M281.976 263.004V339.796" stroke="#42A0F0" stroke-width="6" stroke-linecap="round"/>
<path d="M281.821 281.775L295.046 268.123" stroke="#42A0F0" stroke-width="6" stroke-linecap="round"/>
<path d="M281.821 281.775L268.169 268.123" stroke="#42A0F0" stroke-width="6" stroke-linecap="round"/>
<path d="M281.821 322.73L295.046 336.382" stroke="#42A0F0" stroke-width="6" stroke-linecap="round"/>
<path d="M281.821 322.73L268.169 336.382" stroke="#42A0F0" stroke-width="6" stroke-linecap="round"/>
<path d="M315.043 282.52L248.54 320.916" stroke="#42A0F0" stroke-width="6" stroke-linecap="round"/>
<path d="M298.711 291.769L317.146 296.397" stroke="#42A0F0" stroke-width="6" stroke-linecap="round"/>
<path d="M298.711 291.77L303.708 273.121" stroke="#42A0F0" stroke-width="6" stroke-linecap="round"/>
<path d="M263.242 312.248L258.031 330.527" stroke="#42A0F0" stroke-width="6" stroke-linecap="round"/>
<path d="M263.242 312.249L244.593 307.252" stroke="#42A0F0" stroke-width="6" stroke-linecap="round"/>
<path d="M314.677 320.916L248.173 282.52" stroke="#42A0F0" stroke-width="6" stroke-linecap="round"/>
<path d="M298.497 311.397L303.708 329.676" stroke="#42A0F0" stroke-width="6" stroke-linecap="round"/>
<path d="M298.498 311.397L317.146 306.4" stroke="#42A0F0" stroke-width="6" stroke-linecap="round"/>
<path d="M263.028 290.918L244.593 295.545" stroke="#42A0F0" stroke-width="6" stroke-linecap="round"/>
<path d="M263.028 290.919L258.032 272.27" stroke="#42A0F0" stroke-width="6" stroke-linecap="round"/>
<path d="M194.976 175.004V251.796" stroke="#42A0F0" stroke-width="6" stroke-linecap="round"/>
<path d="M194.821 193.775L208.046 180.123" stroke="#42A0F0" stroke-width="6" stroke-linecap="round"/>
<path d="M194.821 193.775L181.169 180.123" stroke="#42A0F0" stroke-width="6" stroke-linecap="round"/>
<path d="M194.821 234.73L208.046 248.382" stroke="#42A0F0" stroke-width="6" stroke-linecap="round"/>
<path d="M194.821 234.73L181.169 248.382" stroke="#42A0F0" stroke-width="6" stroke-linecap="round"/>
<path d="M228.043 194.52L161.54 232.916" stroke="#42A0F0" stroke-width="6" stroke-linecap="round"/>
<path d="M211.711 203.769L230.146 208.397" stroke="#42A0F0" stroke-width="6" stroke-linecap="round"/>
<path d="M211.711 203.77L216.708 185.121" stroke="#42A0F0" stroke-width="6" stroke-linecap="round"/>
<path d="M176.242 224.248L171.031 242.527" stroke="#42A0F0" stroke-width="6" stroke-linecap="round"/>
<path d="M176.242 224.249L157.593 219.252" stroke="#42A0F0" stroke-width="6" stroke-linecap="round"/>
<path d="M227.677 232.916L161.173 194.52" stroke="#42A0F0" stroke-width="6" stroke-linecap="round"/>
<path d="M211.497 223.397L216.708 241.676" stroke="#42A0F0" stroke-width="6" stroke-linecap="round"/>
<path d="M211.498 223.397L230.146 218.4" stroke="#42A0F0" stroke-width="6" stroke-linecap="round"/>
<path d="M176.028 202.918L157.593 207.545" stroke="#42A0F0" stroke-width="6" stroke-linecap="round"/>
<path d="M176.028 202.919L171.032 184.27" stroke="#42A0F0" stroke-width="6" stroke-linecap="round"/>
<path d="M125.976 263.004V339.796" stroke="#42A0F0" stroke-width="6" stroke-linecap="round"/>
<path d="M125.821 281.775L139.046 268.123" stroke="#42A0F0" stroke-width="6" stroke-linecap="round"/>
<path d="M125.821 281.775L112.169 268.123" stroke="#42A0F0" stroke-width="6" stroke-linecap="round"/>
<path d="M125.821 322.73L139.046 336.382" stroke="#42A0F0" stroke-width="6" stroke-linecap="round"/>
<path d="M125.821 322.73L112.169 336.382" stroke="#42A0F0" stroke-width="6" stroke-linecap="round"/>
<path d="M159.043 282.52L92.5396 320.916" stroke="#42A0F0" stroke-width="6" stroke-linecap="round"/>
<path d="M142.711 291.769L161.146 296.397" stroke="#42A0F0" stroke-width="6" stroke-linecap="round"/>
<path d="M142.711 291.77L147.708 273.121" stroke="#42A0F0" stroke-width="6" stroke-linecap="round"/>
<path d="M107.242 312.248L102.031 330.527" stroke="#42A0F0" stroke-width="6" stroke-linecap="round"/>
<path d="M107.242 312.249L88.5925 307.252" stroke="#42A0F0" stroke-width="6" stroke-linecap="round"/>
<path d="M158.677 320.916L92.1729 282.52" stroke="#42A0F0" stroke-width="6" stroke-linecap="round"/>
<path d="M142.497 311.397L147.708 329.676" stroke="#42A0F0" stroke-width="6" stroke-linecap="round"/>
<path d="M142.498 311.397L161.146 306.4" stroke="#42A0F0" stroke-width="6" stroke-linecap="round"/>
<path d="M107.028 290.918L88.5928 295.545" stroke="#42A0F0" stroke-width="6" stroke-linecap="round"/>
<path d="M107.028 290.919L102.032 272.27" stroke="#42A0F0" stroke-width="6" stroke-linecap="round"/>
</g>
<g filter="url(#filter1_df_4_189)">
<g filter="url(#filter2_d_4_189)">
<path d="M235.562 233.765C233.629 233.92 231.676 233.999 229.705 234H92.1812C82.7149 234.035 73.3348 232.201 64.579 228.603C55.8232 225.005 47.8639 219.714 41.1577 213.032C34.4516 206.351 29.1305 198.412 25.4997 189.669C21.869 180.927 20 171.554 20 162.087C20 152.621 21.869 143.248 25.4997 134.506C29.1305 125.763 34.4516 117.824 41.1577 111.143C47.8639 104.461 55.8232 99.17 64.579 95.5718C73.3348 91.9737 82.7149 90.1397 92.1812 90.175H143.457C160.081 53.6 198.368 28 242.941 28C302.768 28 351.268 74.115 351.268 131C351.268 187.885 302.768 234 242.941 234C240.461 234 238.001 233.922 235.562 233.765Z" fill="url(#paint0_linear_4_189)"/>
<path d="M242.941 233C250.227 233 257.508 232.302 264.581 230.926C271.475 229.585 278.255 227.584 284.733 224.978C291.094 222.42 297.229 219.254 302.967 215.568C308.65 211.917 313.994 207.725 318.851 203.107C323.706 198.49 328.114 193.411 331.952 188.009C335.826 182.557 339.154 176.728 341.842 170.686C344.579 164.532 346.681 158.093 348.09 151.547C349.535 144.831 350.268 137.917 350.268 131C350.268 124.082 349.535 117.169 348.09 110.452C346.681 103.906 344.579 97.4673 341.842 91.3142C339.154 85.2716 335.826 79.4433 331.952 73.991C328.114 68.5893 323.706 63.5095 318.851 58.8928C313.994 54.2752 308.65 50.0829 302.967 46.4323C297.229 42.7461 291.094 39.5801 284.733 37.0221C278.255 34.4165 271.475 32.4154 264.581 31.0742C257.508 29.6979 250.227 29 242.941 29C221.57 29 200.931 34.9523 183.254 46.2135C174.734 51.6418 167.077 58.1939 160.497 65.6878C153.876 73.2291 148.449 81.6069 144.367 90.5885L144.1 91.1747H143.456H92.1807C82.6072 91.1747 73.3205 93.0495 64.5787 96.747C60.3771 98.5242 56.3245 100.724 52.5336 103.285C48.7784 105.822 45.2472 108.735 42.038 111.945C38.8288 115.154 35.9152 118.685 33.3783 122.44C30.8172 126.231 28.6175 130.284 26.8404 134.485C23.1429 143.227 21.2681 152.514 21.2681 162.087C21.2681 171.661 23.1429 180.948 26.8404 189.689C28.6175 193.891 30.8172 197.944 33.3783 201.735C35.9152 205.49 38.8288 209.021 42.038 212.23C45.2472 215.439 48.7784 218.353 52.5336 220.89C56.3245 223.451 60.3771 225.651 64.5787 227.428C73.3205 231.125 82.6072 233 92.1807 233H229.705C231.628 233 233.572 232.922 235.482 232.768L235.554 232.762L235.626 232.767C238.046 232.922 240.507 233 242.941 233ZM242.941 234C240.461 234 238 233.921 235.562 233.765C233.632 233.92 231.676 234 229.705 234H92.1807C52.4646 234 20.2681 201.803 20.2681 162.087C20.2681 122.371 52.4646 90.1747 92.1807 90.1747H143.456C160.081 53.5954 198.366 28 242.941 28C302.768 28 351.268 74.1151 351.268 131C351.268 187.885 302.768 234 242.941 234Z" fill="white" fill-opacity="0.5"/>
</g>
</g>
<g filter="url(#filter3_f_4_189)">
<path d="M149.667 223.237C150.196 223.72 139.127 247.528 132.695 254.927C126.263 262.327 118.351 265.981 115.024 263.089C111.697 260.197 114.214 251.854 120.646 244.455C127.078 237.056 149.138 222.754 149.667 223.237Z" fill="#42A0F0"/>
<path d="M121.792 249.424C122.438 250.458 124.675 250.226 126.788 248.906C128.901 247.585 130.091 245.676 129.444 244.642C128.798 243.608 126.561 243.84 124.448 245.161C122.335 246.481 121.145 248.39 121.792 249.424Z" fill="white"/>
<path d="M217.667 223.237C218.196 223.72 207.127 247.528 200.695 254.927C194.263 262.327 186.351 265.981 183.024 263.089C179.697 260.197 182.214 251.854 188.646 244.455C195.078 237.056 217.138 222.754 217.667 223.237Z" fill="#42A0F0"/>
<path d="M189.792 249.424C190.438 250.458 192.675 250.226 194.788 248.906C196.901 247.585 198.091 245.676 197.444 244.642C196.798 243.608 194.561 243.84 192.448 245.161C190.335 246.481 189.145 248.39 189.792 249.424Z" fill="white"/>
<path d="M285.667 223.237C286.196 223.72 275.127 247.528 268.695 254.927C262.263 262.327 254.351 265.981 251.024 263.089C247.697 260.197 250.214 251.854 256.646 244.455C263.078 237.056 285.138 222.754 285.667 223.237Z" fill="#42A0F0"/>
<path d="M257.792 249.424C258.438 250.458 260.675 250.226 262.788 248.906C264.901 247.585 266.091 245.676 265.444 244.642C264.798 243.608 262.561 243.84 260.448 245.161C258.335 246.481 257.145 248.39 257.792 249.424Z" fill="white"/>
<path d="M225.667 273.237C226.196 273.72 215.127 297.528 208.695 304.927C202.263 312.327 194.351 315.981 191.024 313.089C187.697 310.197 190.214 301.854 196.646 294.455C203.078 287.056 225.138 272.754 225.667 273.237Z" fill="#42A0F0"/>
<path d="M197.792 299.424C198.438 300.458 200.675 300.226 202.788 298.906C204.901 297.585 206.091 295.676 205.444 294.642C204.798 293.608 202.561 293.84 200.448 295.161C198.335 296.481 197.145 298.39 197.792 299.424Z" fill="white"/>
<path d="M149.667 273.237C150.196 273.72 139.127 297.528 132.695 304.927C126.263 312.327 118.351 315.981 115.024 313.089C111.697 310.197 114.214 301.854 120.646 294.455C127.078 287.056 149.138 272.754 149.667 273.237Z" fill="#42A0F0"/>
<path d="M121.792 299.424C122.438 300.458 124.675 300.226 126.788 298.906C128.901 297.585 130.091 295.676 129.444 294.642C128.798 293.608 126.561 293.84 124.448 295.161C122.335 296.481 121.145 298.39 121.792 299.424Z" fill="white"/>
</g>
<defs>
<filter id="filter0_f_4_189" x="81.5918" y="168.004" width="242.556" height="178.793" filterUnits="userSpaceOnUse" color-interpolation-filters="sRGB">
<feFlood flood-opacity="0" result="BackgroundImageFix"/>
<feBlend mode="normal" in="SourceGraphic" in2="BackgroundImageFix" result="shape"/>
<feGaussianBlur stdDeviation="2" result="effect1_foregroundBlur_4_189"/>
</filter>
<filter id="filter1_df_4_189" x="16" y="24" width="339.268" height="218" filterUnits="userSpaceOnUse" color-interpolation-filters="sRGB">
<feFlood flood-opacity="0" result="BackgroundImageFix"/>
<feColorMatrix in="SourceAlpha" type="matrix" values="0 0 0 0 0 0 0 0 0 0 0 0 0 0 0 0 0 0 127 0" result="hardAlpha"/>
<feOffset dy="4"/>
<feGaussianBlur stdDeviation="2"/>
<feColorMatrix type="matrix" values="0 0 0 0 0 0 0 0 0 0 0 0 0 0 0 0 0 0 0.25 0"/>
<feBlend mode="normal" in2="BackgroundImageFix" result="effect1_dropShadow_4_189"/>
<feBlend mode="normal" in="SourceGraphic" in2="effect1_dropShadow_4_189" result="shape"/>
<feGaussianBlur stdDeviation="2" result="effect2_foregroundBlur_4_189"/>
</filter>
<filter id="filter2_d_4_189" x="0" y="0" width="391.268" height="266" filterUnits="userSpaceOnUse" color-interpolation-filters="sRGB">
<feFlood flood-opacity="0" result="BackgroundImageFix"/>
<feColorMatrix in="SourceAlpha" type="matrix" values="0 0 0 0 0 0 0 0 0 0 0 0 0 0 0 0 0 0 127 0" result="hardAlpha"/>
<feOffset dx="10" dy="2"/>
<feGaussianBlur stdDeviation="15"/>
<feColorMatrix type="matrix" values="0 0 0 0 0.501961 0 0 0 0 0.501961 0 0 0 0 0.501961 0 0 0 0.302 0"/>
<feBlend mode="normal" in2="BackgroundImageFix" result="effect1_dropShadow_4_189"/>
<feBlend mode="normal" in="SourceGraphic" in2="effect1_dropShadow_4_189" result="shape"/>
</filter>
<filter id="filter3_f_4_189" x="109.556" y="219.225" width="180.13" height="98.8555" filterUnits="userSpaceOnUse" color-interpolation-filters="sRGB">
<feFlood flood-opacity="0" result="BackgroundImageFix"/>
<feBlend mode="normal" in="SourceGraphic" in2="BackgroundImageFix" result="shape"/>
<feGaussianBlur stdDeviation="2" result="effect1_foregroundBlur_4_189"/>
</filter>
<linearGradient id="paint0_linear_4_189" x1="154.164" y1="53.9561" x2="220.206" y2="245.168" gradientUnits="userSpaceOnUse">
<stop stop-color="white" stop-opacity="0.596"/>
<stop offset="1" stop-color="#F7F7F7" stop-opacity="0.204"/>
</linearGradient>
</defs>
</svg>
