<svg width="392" height="312" viewBox="0 0 392 312" fill="none" xmlns="http://www.w3.org/2000/svg">
<g filter="url(#filter0_f_4_31)">
<path d="M188.384 117.631V200.789" stroke="#42A0F0" stroke-width="10" stroke-linecap="round"/>
<path d="M188.217 137.957L202.539 123.174" stroke="#42A0F0" stroke-width="10" stroke-linecap="round"/>
<path d="M188.218 137.957L173.434 123.174" stroke="#42A0F0" stroke-width="10" stroke-linecap="round"/>
<path d="M188.217 182.309L202.539 197.092" stroke="#42A0F0" stroke-width="10" stroke-linecap="round"/>
<path d="M188.218 182.309L173.434 197.092" stroke="#42A0F0" stroke-width="10" stroke-linecap="round"/>
<path d="M224.193 138.764L152.176 180.343" stroke="#42A0F0" stroke-width="10" stroke-linecap="round"/>
<path d="M206.506 148.784L226.47 153.796" stroke="#42A0F0" stroke-width="10" stroke-linecap="round"/>
<path d="M206.506 148.784L211.917 128.59" stroke="#42A0F0" stroke-width="10" stroke-linecap="round"/>
<path d="M168.096 170.959L162.454 190.754" stroke="#42A0F0" stroke-width="10" stroke-linecap="round"/>
<path d="M168.096 170.959L147.902 165.548" stroke="#42A0F0" stroke-width="10" stroke-linecap="round"/>
<path d="M223.796 180.342L151.779 138.763" stroke="#42A0F0" stroke-width="10" stroke-linecap="round"/>
<path d="M206.276 170.034L211.918 189.829" stroke="#42A0F0" stroke-width="10" stroke-linecap="round"/>
<path d="M206.276 170.034L226.471 164.623" stroke="#42A0F0" stroke-width="10" stroke-linecap="round"/>
<path d="M167.866 147.859L147.902 152.871" stroke="#42A0F0" stroke-width="10" stroke-linecap="round"/>
<path d="M167.867 147.859L162.455 127.665" stroke="#42A0F0" stroke-width="10" stroke-linecap="round"/>
</g>
<path d="M157.85 101V106.68" stroke="#42A0F0" stroke-linecap="round"/>
<path d="M157.727 102.386L158.65 101.924" stroke="#42A0F0" stroke-linecap="round"/>
<path d="M157.727 102.386L156.341 101.924" stroke="#42A0F0" stroke-linecap="round"/>
<path d="M157.727 105.621L158.651 106.083" stroke="#42A0F0" stroke-linecap="round"/>
<path d="M157.727 105.621L156.341 106.083" stroke="#42A0F0" stroke-linecap="round"/>
<path d="M160.295 102.443L155.377 105.283" stroke="#42A0F0" stroke-linecap="round"/>
<path d="M159.087 103.13L160.451 103.472" stroke="#42A0F0" stroke-linecap="round"/>
<path d="M159.087 103.129L159.457 101.75" stroke="#42A0F0" stroke-linecap="round"/>
<path d="M156.464 104.645L156.079 105.997" stroke="#42A0F0" stroke-linecap="round"/>
<path d="M156.464 104.644L155.085 104.274" stroke="#42A0F0" stroke-linecap="round"/>
<path d="M160.268 105.283L155.349 102.443" stroke="#42A0F0" stroke-linecap="round"/>
<path d="M159.071 104.579L159.457 105.931" stroke="#42A0F0" stroke-linecap="round"/>
<path d="M159.071 104.581L160.451 104.211" stroke="#42A0F0" stroke-linecap="round"/>
<path d="M156.448 103.062L155.084 103.405" stroke="#42A0F0" stroke-linecap="round"/>
<path d="M156.448 103.064L156.078 101.685" stroke="#42A0F0" stroke-linecap="round"/>
<path d="M236.209 113.576V123.313" stroke="#42A0F0" stroke-linecap="round"/>
<path d="M235.804 115.784L237.652 115.322" stroke="#42A0F0" stroke-linecap="round"/>
<path d="M235.803 115.784L233.493 115.322" stroke="#42A0F0" stroke-linecap="round"/>
<path d="M235.804 121.328L237.652 122.252" stroke="#42A0F0" stroke-linecap="round"/>
<path d="M235.803 121.328L233.493 122.252" stroke="#42A0F0" stroke-linecap="round"/>
<path d="M240.402 116.049L231.97 120.917" stroke="#42A0F0" stroke-linecap="round"/>
<path d="M238.332 117.223L240.669 117.809" stroke="#42A0F0" stroke-linecap="round"/>
<path d="M238.331 117.223L238.965 114.859" stroke="#42A0F0" stroke-linecap="round"/>
<path d="M233.834 119.816L233.174 122.134" stroke="#42A0F0" stroke-linecap="round"/>
<path d="M233.834 119.817L231.47 119.184" stroke="#42A0F0" stroke-linecap="round"/>
<path d="M240.355 120.918L231.923 116.05" stroke="#42A0F0" stroke-linecap="round"/>
<path d="M238.304 119.711L238.965 122.028" stroke="#42A0F0" stroke-linecap="round"/>
<path d="M238.304 119.712L240.668 119.078" stroke="#42A0F0" stroke-linecap="round"/>
<path d="M233.807 117.113L231.47 117.7" stroke="#42A0F0" stroke-linecap="round"/>
<path d="M233.807 117.114L233.174 114.75" stroke="#42A0F0" stroke-linecap="round"/>
<path d="M230.211 185.186V193.179" stroke="#42A0F0" stroke-linecap="round"/>
<path d="M229.797 186.933L231.183 186.471" stroke="#42A0F0" stroke-linecap="round"/>
<path d="M229.797 186.933L227.949 186.471" stroke="#42A0F0" stroke-linecap="round"/>
<path d="M229.797 191.553L231.183 192.476" stroke="#42A0F0" stroke-linecap="round"/>
<path d="M229.797 191.553L227.949 192.476" stroke="#42A0F0" stroke-linecap="round"/>
<path d="M233.654 187.217L226.731 191.214" stroke="#42A0F0" stroke-linecap="round"/>
<path d="M231.953 188.177L233.873 188.659" stroke="#42A0F0" stroke-linecap="round"/>
<path d="M231.953 188.178L232.474 186.236" stroke="#42A0F0" stroke-linecap="round"/>
<path d="M228.261 190.311L227.719 192.214" stroke="#42A0F0" stroke-linecap="round"/>
<path d="M228.261 190.311L226.32 189.791" stroke="#42A0F0" stroke-linecap="round"/>
<path d="M233.615 191.213L226.692 187.216" stroke="#42A0F0" stroke-linecap="round"/>
<path d="M231.931 190.223L232.473 192.126" stroke="#42A0F0" stroke-linecap="round"/>
<path d="M231.931 190.223L233.873 189.703" stroke="#42A0F0" stroke-linecap="round"/>
<path d="M228.239 188.092L226.32 188.574" stroke="#42A0F0" stroke-linecap="round"/>
<path d="M228.239 188.092L227.719 186.151" stroke="#42A0F0" stroke-linecap="round"/>
<path d="M164.57 203.662V210.703" stroke="#42A0F0" stroke-linecap="round"/>
<path d="M164.194 205.409L165.58 204.947" stroke="#42A0F0" stroke-linecap="round"/>
<path d="M164.194 205.409L162.808 204.947" stroke="#42A0F0" stroke-linecap="round"/>
<path d="M164.194 209.105L165.58 210.029" stroke="#42A0F0" stroke-linecap="round"/>
<path d="M164.194 209.105L162.808 210.029" stroke="#42A0F0" stroke-linecap="round"/>
<path d="M167.603 205.451L161.505 208.972" stroke="#42A0F0" stroke-linecap="round"/>
<path d="M166.105 206.3L167.795 206.724" stroke="#42A0F0" stroke-linecap="round"/>
<path d="M166.105 206.3L166.563 204.59" stroke="#42A0F0" stroke-linecap="round"/>
<path d="M162.852 208.178L162.374 209.854" stroke="#42A0F0" stroke-linecap="round"/>
<path d="M162.852 208.178L161.142 207.72" stroke="#42A0F0" stroke-linecap="round"/>
<path d="M167.569 208.973L161.471 205.452" stroke="#42A0F0" stroke-linecap="round"/>
<path d="M166.085 208.101L166.563 209.777" stroke="#42A0F0" stroke-linecap="round"/>
<path d="M166.085 208.101L167.795 207.643" stroke="#42A0F0" stroke-linecap="round"/>
<path d="M162.833 206.223L161.142 206.647" stroke="#42A0F0" stroke-linecap="round"/>
<path d="M162.833 206.223L162.374 204.513" stroke="#42A0F0" stroke-linecap="round"/>
<path d="M138 174.098V179.809" stroke="#42A0F0" stroke-linecap="round"/>
<path d="M137.861 175.382L138.785 174.92" stroke="#42A0F0" stroke-linecap="round"/>
<path d="M137.861 175.382L136.475 174.92" stroke="#42A0F0" stroke-linecap="round"/>
<path d="M137.861 178.615L138.785 179.077" stroke="#42A0F0" stroke-linecap="round"/>
<path d="M137.861 178.615L136.475 179.077" stroke="#42A0F0" stroke-linecap="round"/>
<path d="M140.459 175.549L135.513 178.404" stroke="#42A0F0" stroke-linecap="round"/>
<path d="M139.245 176.236L140.616 176.58" stroke="#42A0F0" stroke-linecap="round"/>
<path d="M139.244 176.237L139.616 174.85" stroke="#42A0F0" stroke-linecap="round"/>
<path d="M136.607 177.76L136.219 179.119" stroke="#42A0F0" stroke-linecap="round"/>
<path d="M136.606 177.76L135.219 177.389" stroke="#42A0F0" stroke-linecap="round"/>
<path d="M140.433 178.404L135.487 175.549" stroke="#42A0F0" stroke-linecap="round"/>
<path d="M139.228 177.695L139.616 179.055" stroke="#42A0F0" stroke-linecap="round"/>
<path d="M139.228 177.696L140.616 177.324" stroke="#42A0F0" stroke-linecap="round"/>
<path d="M136.591 176.172L135.22 176.516" stroke="#42A0F0" stroke-linecap="round"/>
<path d="M136.591 176.172L136.219 174.785" stroke="#42A0F0" stroke-linecap="round"/>
<g filter="url(#filter1_df_4_31)">
<g filter="url(#filter2_d_4_31)">
<path d="M235.562 233.765C233.629 233.92 231.676 233.999 229.705 234H92.1812C82.7149 234.035 73.3348 232.201 64.579 228.603C55.8232 225.005 47.8639 219.714 41.1577 213.032C34.4516 206.351 29.1305 198.412 25.4997 189.669C21.869 180.927 20 171.554 20 162.087C20 152.621 21.869 143.248 25.4997 134.506C29.1305 125.763 34.4516 117.824 41.1577 111.143C47.8639 104.461 55.8232 99.17 64.579 95.5718C73.3348 91.9737 82.7149 90.1397 92.1812 90.175H143.457C160.081 53.6 198.368 28 242.941 28C302.768 28 351.268 74.115 351.268 131C351.268 187.885 302.768 234 242.941 234C240.461 234 238.001 233.922 235.562 233.765Z" fill="url(#paint0_linear_4_31)"/>
<path d="M242.941 233C250.227 233 257.508 232.302 264.581 230.926C271.475 229.585 278.255 227.584 284.733 224.978C291.094 222.42 297.229 219.254 302.967 215.568C308.65 211.917 313.994 207.725 318.851 203.107C323.706 198.49 328.114 193.411 331.952 188.009C335.826 182.557 339.154 176.728 341.842 170.686C344.579 164.532 346.681 158.093 348.09 151.547C349.535 144.831 350.268 137.917 350.268 131C350.268 124.082 349.535 117.169 348.09 110.452C346.681 103.906 344.579 97.4673 341.842 91.3142C339.154 85.2716 335.826 79.4433 331.952 73.991C328.114 68.5893 323.706 63.5095 318.851 58.8928C313.994 54.2752 308.65 50.0829 302.967 46.4323C297.229 42.7461 291.094 39.5801 284.733 37.0221C278.255 34.4165 271.475 32.4154 264.581 31.0742C257.508 29.6979 250.227 29 242.941 29C221.57 29 200.931 34.9523 183.254 46.2135C174.734 51.6418 167.077 58.1939 160.497 65.6878C153.876 73.2291 148.449 81.6069 144.367 90.5885L144.1 91.1747H143.456H92.1807C82.6072 91.1747 73.3205 93.0495 64.5787 96.747C60.3771 98.5242 56.3245 100.724 52.5336 103.285C48.7784 105.822 45.2472 108.735 42.038 111.945C38.8288 115.154 35.9152 118.685 33.3783 122.44C30.8172 126.231 28.6175 130.284 26.8404 134.485C23.1429 143.227 21.2681 152.514 21.2681 162.087C21.2681 171.661 23.1429 180.948 26.8404 189.689C28.6175 193.891 30.8172 197.944 33.3783 201.735C35.9152 205.49 38.8288 209.021 42.038 212.23C45.2472 215.439 48.7784 218.353 52.5336 220.89C56.3245 223.451 60.3771 225.651 64.5787 227.428C73.3205 231.125 82.6072 233 92.1807 233H229.705C231.628 233 233.572 232.922 235.482 232.768L235.554 232.762L235.626 232.767C238.046 232.922 240.507 233 242.941 233ZM242.941 234C240.461 234 238 233.921 235.562 233.765C233.632 233.92 231.676 234 229.705 234H92.1807C52.4646 234 20.2681 201.803 20.2681 162.087C20.2681 122.371 52.4646 90.1747 92.1807 90.1747H143.456C160.081 53.5954 198.366 28 242.941 28C302.768 28 351.268 74.1151 351.268 131C351.268 187.885 302.768 234 242.941 234Z" fill="white" fill-opacity="0.5"/>
</g>
</g>
<g filter="url(#filter3_f_4_31)">
<path d="M135.667 216.237C136.196 216.72 125.127 240.528 118.695 247.927C112.263 255.327 104.351 258.981 101.024 256.089C97.6972 253.197 100.214 244.854 106.646 237.455C113.078 230.056 135.138 215.754 135.667 216.237Z" fill="#42A0F0"/>
<path d="M107.792 242.424C108.438 243.458 110.675 243.226 112.788 241.906C114.901 240.585 116.091 238.676 115.444 237.642C114.798 236.608 112.561 236.84 110.448 238.161C108.335 239.481 107.145 241.39 107.792 242.424Z" fill="white"/>
<path d="M203.667 216.237C204.196 216.72 193.127 240.528 186.695 247.927C180.263 255.327 172.351 258.981 169.024 256.089C165.697 253.197 168.214 244.854 174.646 237.455C181.078 230.056 203.138 215.754 203.667 216.237Z" fill="#42A0F0"/>
<path d="M175.792 242.424C176.438 243.458 178.675 243.226 180.788 241.906C182.901 240.585 184.091 238.676 183.444 237.642C182.798 236.608 180.561 236.84 178.448 238.161C176.335 239.481 175.145 241.39 175.792 242.424Z" fill="white"/>
<path d="M271.667 216.237C272.196 216.72 261.127 240.528 254.695 247.927C248.263 255.327 240.351 258.981 237.024 256.089C233.697 253.197 236.214 244.854 242.646 237.455C249.078 230.056 271.138 215.754 271.667 216.237Z" fill="#42A0F0"/>
<path d="M243.792 242.424C244.438 243.458 246.675 243.226 248.788 241.906C250.901 240.585 252.091 238.676 251.444 237.642C250.798 236.608 248.561 236.84 246.448 238.161C244.335 239.481 243.145 241.39 243.792 242.424Z" fill="white"/>
<path d="M211.667 266.237C212.196 266.72 201.127 290.528 194.695 297.927C188.263 305.327 180.351 308.981 177.024 306.089C173.697 303.197 176.214 294.854 182.646 287.455C189.078 280.056 211.138 265.754 211.667 266.237Z" fill="#42A0F0"/>
<path d="M183.792 292.424C184.438 293.458 186.675 293.226 188.788 291.906C190.901 290.585 192.091 288.676 191.444 287.642C190.798 286.608 188.561 286.84 186.448 288.161C184.335 289.481 183.145 291.39 183.792 292.424Z" fill="white"/>
<path d="M135.667 266.237C136.196 266.72 125.127 290.528 118.695 297.927C112.263 305.327 104.351 308.981 101.024 306.089C97.6972 303.197 100.214 294.854 106.646 287.455C113.078 280.056 135.138 265.754 135.667 266.237Z" fill="#42A0F0"/>
<path d="M107.792 292.424C108.438 293.458 110.675 293.226 112.788 291.906C114.901 290.585 116.091 288.676 115.444 287.642C114.798 286.608 112.561 286.84 110.448 288.161C108.335 289.481 107.145 291.39 107.792 292.424Z" fill="white"/>
</g>
<defs>
<filter id="filter0_f_4_31" x="138.9" y="108.631" width="96.5718" height="101.158" filterUnits="userSpaceOnUse" color-interpolation-filters="sRGB">
<feFlood flood-opacity="0" result="BackgroundImageFix"/>
<feBlend mode="normal" in="SourceGraphic" in2="BackgroundImageFix" result="shape"/>
<feGaussianBlur stdDeviation="2" result="effect1_foregroundBlur_4_31"/>
</filter>
<filter id="filter1_df_4_31" x="16" y="24" width="339.268" height="218" filterUnits="userSpaceOnUse" color-interpolation-filters="sRGB">
<feFlood flood-opacity="0" result="BackgroundImageFix"/>
<feColorMatrix in="SourceAlpha" type="matrix" values="0 0 0 0 0 0 0 0 0 0 0 0 0 0 0 0 0 0 127 0" result="hardAlpha"/>
<feOffset dy="4"/>
<feGaussianBlur stdDeviation="2"/>
<feColorMatrix type="matrix" values="0 0 0 0 0 0 0 0 0 0 0 0 0 0 0 0 0 0 0.25 0"/>
<feBlend mode="normal" in2="BackgroundImageFix" result="effect1_dropShadow_4_31"/>
<feBlend mode="normal" in="SourceGraphic" in2="effect1_dropShadow_4_31" result="shape"/>
<feGaussianBlur stdDeviation="2" result="effect2_foregroundBlur_4_31"/>
</filter>
<filter id="filter2_d_4_31" x="0" y="0" width="391.268" height="266" filterUnits="userSpaceOnUse" color-interpolation-filters="sRGB">
<feFlood flood-opacity="0" result="BackgroundImageFix"/>
<feColorMatrix in="SourceAlpha" type="matrix" values="0 0 0 0 0 0 0 0 0 0 0 0 0 0 0 0 0 0 127 0" result="hardAlpha"/>
<feOffset dx="10" dy="2"/>
<feGaussianBlur stdDeviation="15"/>
<feColorMatrix type="matrix" values="0 0 0 0 0.501961 0 0 0 0 0.501961 0 0 0 0 0.501961 0 0 0 0.302 0"/>
<feBlend mode="normal" in2="BackgroundImageFix" result="effect1_dropShadow_4_31"/>
<feBlend mode="normal" in="SourceGraphic" in2="effect1_dropShadow_4_31" result="shape"/>
</filter>
<filter id="filter3_f_4_31" x="95.5557" y="212.225" width="180.13" height="98.8555" filterUnits="userSpaceOnUse" color-interpolation-filters="sRGB">
<feFlood flood-opacity="0" result="BackgroundImageFix"/>
<feBlend mode="normal" in="SourceGraphic" in2="BackgroundImageFix" result="shape"/>
<feGaussianBlur stdDeviation="2" result="effect1_foregroundBlur_4_31"/>
</filter>
<linearGradient id="paint0_linear_4_31" x1="154.164" y1="53.9561" x2="220.206" y2="245.168" gradientUnits="userSpaceOnUse">
<stop stop-color="white" stop-opacity="0.596"/>
<stop offset="1" stop-color="#F7F7F7" stop-opacity="0.204"/>
</linearGradient>
</defs>
</svg>
