<svg width="392" height="301" viewBox="0 0 392 301" fill="none" xmlns="http://www.w3.org/2000/svg">
<g filter="url(#filter0_f_110_264)">
<path d="M114.961 212.282C114.961 212.282 172.544 215.394 198.08 207.982C223.616 200.57 223.58 162.082 198.08 152.59C172.58 143.098 163.862 177.015 163.862 177.015" stroke="#D0D0D0" stroke-width="16" stroke-linecap="round"/>
<path d="M39.9111 256.856C39.9111 256.856 126.465 249.036 164.623 256.856C202.781 264.676 190.631 287.111 172.547 288.136C154.463 289.161 137.776 277.28 137.776 277.28" stroke="#D0D0D0" stroke-width="16" stroke-linecap="round"/>
</g>
<g filter="url(#filter1_f_110_264)">
<path d="M356.631 183.295V192.143" stroke="#42A0F0" stroke-linecap="round"/>
<path d="M356.439 185.454L357.878 184.734" stroke="#42A0F0" stroke-linecap="round"/>
<path d="M356.439 185.454L354.28 184.734" stroke="#42A0F0" stroke-linecap="round"/>
<path d="M356.439 190.492L357.878 191.212" stroke="#42A0F0" stroke-linecap="round"/>
<path d="M356.439 190.492L354.28 191.212" stroke="#42A0F0" stroke-linecap="round"/>
<path d="M360.44 185.543L352.778 189.967" stroke="#42A0F0" stroke-linecap="round"/>
<path d="M358.559 186.609L360.683 187.142" stroke="#42A0F0" stroke-linecap="round"/>
<path d="M358.559 186.61L359.134 184.461" stroke="#42A0F0" stroke-linecap="round"/>
<path d="M354.472 188.969L353.871 191.075" stroke="#42A0F0" stroke-linecap="round"/>
<path d="M354.472 188.97L352.323 188.394" stroke="#42A0F0" stroke-linecap="round"/>
<path d="M360.397 189.967L352.735 185.543" stroke="#42A0F0" stroke-linecap="round"/>
<path d="M358.533 188.87L359.134 190.976" stroke="#42A0F0" stroke-linecap="round"/>
<path d="M358.533 188.871L360.682 188.295" stroke="#42A0F0" stroke-linecap="round"/>
<path d="M354.446 186.51L352.322 187.043" stroke="#42A0F0" stroke-linecap="round"/>
<path d="M354.446 186.511L353.871 184.362" stroke="#42A0F0" stroke-linecap="round"/>
</g>
<g filter="url(#filter2_f_110_264)">
<path d="M327.701 134.885V150.053" stroke="#42A0F0" stroke-linecap="round"/>
<path d="M327.069 138.325L329.948 137.605" stroke="#42A0F0" stroke-linecap="round"/>
<path d="M327.069 138.325L323.47 137.605" stroke="#42A0F0" stroke-linecap="round"/>
<path d="M327.069 146.961L329.948 148.4" stroke="#42A0F0" stroke-linecap="round"/>
<path d="M327.069 146.961L323.47 148.4" stroke="#42A0F0" stroke-linecap="round"/>
<path d="M334.232 138.738L321.097 146.322" stroke="#42A0F0" stroke-linecap="round"/>
<path d="M331.007 140.565L334.648 141.479" stroke="#42A0F0" stroke-linecap="round"/>
<path d="M331.007 140.566L331.994 136.883" stroke="#42A0F0" stroke-linecap="round"/>
<path d="M324.001 144.609L322.972 148.219" stroke="#42A0F0" stroke-linecap="round"/>
<path d="M324.001 144.61L320.318 143.623" stroke="#42A0F0" stroke-linecap="round"/>
<path d="M334.16 146.322L321.024 138.738" stroke="#42A0F0" stroke-linecap="round"/>
<path d="M330.965 144.441L331.994 148.051" stroke="#42A0F0" stroke-linecap="round"/>
<path d="M330.965 144.442L334.648 143.455" stroke="#42A0F0" stroke-linecap="round"/>
<path d="M323.959 140.396L320.318 141.311" stroke="#42A0F0" stroke-linecap="round"/>
<path d="M323.959 140.397L322.972 136.714" stroke="#42A0F0" stroke-linecap="round"/>
</g>
<g filter="url(#filter3_f_110_264)">
<path d="M220.357 228.439V240.892" stroke="#42A0F0" stroke-linecap="round"/>
<path d="M219.712 231.161L221.871 230.441" stroke="#42A0F0" stroke-linecap="round"/>
<path d="M219.712 231.161L216.833 230.441" stroke="#42A0F0" stroke-linecap="round"/>
<path d="M219.712 238.357L221.871 239.796" stroke="#42A0F0" stroke-linecap="round"/>
<path d="M219.712 238.357L216.833 239.796" stroke="#42A0F0" stroke-linecap="round"/>
<path d="M225.72 231.605L214.935 237.832" stroke="#42A0F0" stroke-linecap="round"/>
<path d="M223.071 233.105L226.061 233.856" stroke="#42A0F0" stroke-linecap="round"/>
<path d="M223.071 233.104L223.881 230.08" stroke="#42A0F0" stroke-linecap="round"/>
<path d="M217.319 236.426L216.474 239.39" stroke="#42A0F0" stroke-linecap="round"/>
<path d="M217.319 236.425L214.295 235.615" stroke="#42A0F0" stroke-linecap="round"/>
<path d="M225.66 237.83L214.875 231.604" stroke="#42A0F0" stroke-linecap="round"/>
<path d="M223.036 236.288L223.881 239.252" stroke="#42A0F0" stroke-linecap="round"/>
<path d="M223.036 236.287L226.061 235.477" stroke="#42A0F0" stroke-linecap="round"/>
<path d="M217.285 232.967L214.295 233.717" stroke="#42A0F0" stroke-linecap="round"/>
<path d="M217.285 232.966L216.474 229.942" stroke="#42A0F0" stroke-linecap="round"/>
</g>
<g filter="url(#filter4_f_110_264)">
<path d="M251.709 254.166V263.063" stroke="#42A0F0" stroke-linecap="round"/>
<path d="M251.492 256.167L252.931 255.447" stroke="#42A0F0" stroke-linecap="round"/>
<path d="M251.492 256.167L249.333 255.447" stroke="#42A0F0" stroke-linecap="round"/>
<path d="M251.492 261.205L252.931 261.925" stroke="#42A0F0" stroke-linecap="round"/>
<path d="M251.492 261.205L249.333 261.925" stroke="#42A0F0" stroke-linecap="round"/>
<path d="M255.54 256.428L247.835 260.876" stroke="#42A0F0" stroke-linecap="round"/>
<path d="M253.648 257.5L255.784 258.036" stroke="#42A0F0" stroke-linecap="round"/>
<path d="M253.648 257.501L254.227 255.34" stroke="#42A0F0" stroke-linecap="round"/>
<path d="M249.539 259.873L248.935 261.991" stroke="#42A0F0" stroke-linecap="round"/>
<path d="M249.539 259.874L247.378 259.295" stroke="#42A0F0" stroke-linecap="round"/>
<path d="M255.498 260.875L247.793 256.426" stroke="#42A0F0" stroke-linecap="round"/>
<path d="M253.623 259.771L254.227 261.889" stroke="#42A0F0" stroke-linecap="round"/>
<path d="M253.623 259.772L255.784 259.193" stroke="#42A0F0" stroke-linecap="round"/>
<path d="M249.514 257.398L247.378 257.934" stroke="#42A0F0" stroke-linecap="round"/>
<path d="M249.514 257.399L248.935 255.238" stroke="#42A0F0" stroke-linecap="round"/>
</g>
<g filter="url(#filter5_f_110_264)">
<path d="M334.683 216.539V274.601" stroke="#42A0F0" stroke-width="4" stroke-linecap="round"/>
<path d="M334.566 230.732L344.566 220.41" stroke="#42A0F0" stroke-width="4" stroke-linecap="round"/>
<path d="M334.567 230.732L324.245 220.41" stroke="#42A0F0" stroke-width="4" stroke-linecap="round"/>
<path d="M334.566 261.699L344.566 272.021" stroke="#42A0F0" stroke-width="4" stroke-linecap="round"/>
<path d="M334.567 261.699L324.245 272.021" stroke="#42A0F0" stroke-width="4" stroke-linecap="round"/>
<path d="M359.686 231.295L309.403 260.326" stroke="#42A0F0" stroke-width="4" stroke-linecap="round"/>
<path d="M347.336 238.292L361.275 241.791" stroke="#42A0F0" stroke-width="4" stroke-linecap="round"/>
<path d="M347.336 238.292L351.114 224.191" stroke="#42A0F0" stroke-width="4" stroke-linecap="round"/>
<path d="M320.518 253.775L316.579 267.597" stroke="#42A0F0" stroke-width="4" stroke-linecap="round"/>
<path d="M320.518 253.775L306.418 249.997" stroke="#42A0F0" stroke-width="4" stroke-linecap="round"/>
<path d="M359.409 260.324L309.126 231.293" stroke="#42A0F0" stroke-width="4" stroke-linecap="round"/>
<path d="M347.175 253.128L351.114 266.949" stroke="#42A0F0" stroke-width="4" stroke-linecap="round"/>
<path d="M347.175 253.128L361.275 249.35" stroke="#42A0F0" stroke-width="4" stroke-linecap="round"/>
<path d="M320.357 237.645L306.418 241.144" stroke="#42A0F0" stroke-width="4" stroke-linecap="round"/>
<path d="M320.357 237.644L316.579 223.544" stroke="#42A0F0" stroke-width="4" stroke-linecap="round"/>
<path d="M268.902 150.002V208.064" stroke="#42A0F0" stroke-width="4" stroke-linecap="round"/>
<path d="M268.786 164.195L278.786 153.873" stroke="#42A0F0" stroke-width="4" stroke-linecap="round"/>
<path d="M268.786 164.195L258.464 153.873" stroke="#42A0F0" stroke-width="4" stroke-linecap="round"/>
<path d="M268.786 195.162L278.786 205.484" stroke="#42A0F0" stroke-width="4" stroke-linecap="round"/>
<path d="M268.786 195.162L258.464 205.484" stroke="#42A0F0" stroke-width="4" stroke-linecap="round"/>
<path d="M293.905 164.758L243.622 193.789" stroke="#42A0F0" stroke-width="4" stroke-linecap="round"/>
<path d="M281.556 171.755L295.495 175.254" stroke="#42A0F0" stroke-width="4" stroke-linecap="round"/>
<path d="M281.555 171.754L285.333 157.654" stroke="#42A0F0" stroke-width="4" stroke-linecap="round"/>
<path d="M254.737 187.238L250.798 201.06" stroke="#42A0F0" stroke-width="4" stroke-linecap="round"/>
<path d="M254.737 187.238L240.637 183.46" stroke="#42A0F0" stroke-width="4" stroke-linecap="round"/>
<path d="M293.628 193.787L243.345 164.756" stroke="#42A0F0" stroke-width="4" stroke-linecap="round"/>
<path d="M281.394 186.591L285.333 200.412" stroke="#42A0F0" stroke-width="4" stroke-linecap="round"/>
<path d="M281.395 186.591L295.495 182.812" stroke="#42A0F0" stroke-width="4" stroke-linecap="round"/>
<path d="M254.576 171.107L240.637 174.607" stroke="#42A0F0" stroke-width="4" stroke-linecap="round"/>
<path d="M254.576 171.107L250.798 157.007" stroke="#42A0F0" stroke-width="4" stroke-linecap="round"/>
</g>
<g filter="url(#filter6_df_110_264)">
<g filter="url(#filter7_d_110_264)">
<path d="M235.562 233.765C233.629 233.92 231.676 233.999 229.705 234H92.1812C82.7149 234.035 73.3348 232.201 64.579 228.603C55.8232 225.005 47.8639 219.714 41.1577 213.032C34.4516 206.351 29.1305 198.412 25.4997 189.669C21.869 180.927 20 171.554 20 162.087C20 152.621 21.869 143.248 25.4997 134.506C29.1305 125.763 34.4516 117.824 41.1577 111.143C47.8639 104.461 55.8232 99.17 64.579 95.5718C73.3348 91.9737 82.7149 90.1397 92.1812 90.175H143.456C160.08 53.6 198.368 28 242.941 28C302.768 28 351.268 74.115 351.268 131C351.268 187.885 302.768 234 242.941 234C240.461 234 238.001 233.922 235.562 233.765Z" fill="url(#paint0_linear_110_264)"/>
<path d="M242.941 233C250.227 233 257.508 232.302 264.581 230.926C271.475 229.585 278.255 227.584 284.733 224.978C291.094 222.42 297.229 219.254 302.967 215.568C308.65 211.917 313.994 207.725 318.851 203.107C323.706 198.49 328.114 193.411 331.952 188.009C335.826 182.557 339.154 176.728 341.842 170.686C344.579 164.532 346.681 158.093 348.09 151.547C349.535 144.831 350.268 137.917 350.268 131C350.268 124.082 349.535 117.169 348.09 110.452C346.681 103.906 344.579 97.4673 341.842 91.3142C339.154 85.2716 335.826 79.4433 331.952 73.991C328.114 68.5893 323.706 63.5095 318.851 58.8928C313.994 54.2752 308.65 50.0829 302.967 46.4323C297.229 42.7461 291.094 39.5801 284.733 37.0221C278.255 34.4165 271.475 32.4154 264.581 31.0742C257.508 29.6979 250.227 29 242.941 29C221.57 29 200.931 34.9523 183.254 46.2135C174.734 51.6418 167.077 58.1939 160.497 65.6878C153.875 73.2291 148.448 81.6069 144.366 90.5885L144.1 91.1747H143.456H92.1807C82.6072 91.1747 73.3205 93.0495 64.5787 96.747C60.3771 98.5242 56.3245 100.724 52.5336 103.285C48.7784 105.822 45.2472 108.735 42.038 111.945C38.8288 115.154 35.9152 118.685 33.3783 122.44C30.8172 126.231 28.6175 130.284 26.8404 134.485C23.1429 143.227 21.2681 152.514 21.2681 162.087C21.2681 171.661 23.1429 180.948 26.8404 189.689C28.6175 193.891 30.8172 197.944 33.3783 201.735C35.9152 205.49 38.8288 209.021 42.038 212.23C45.2472 215.439 48.7784 218.353 52.5336 220.89C56.3245 223.451 60.3771 225.651 64.5787 227.428C73.3205 231.125 82.6072 233 92.1807 233H229.705C231.628 233 233.572 232.922 235.482 232.768L235.554 232.762L235.626 232.767C238.046 232.922 240.507 233 242.941 233ZM242.941 234C240.461 234 238 233.921 235.562 233.765C233.632 233.92 231.676 234 229.705 234H92.1807C52.4646 234 20.2681 201.803 20.2681 162.087C20.2681 122.371 52.4646 90.1747 92.1807 90.1747H143.456C160.08 53.5954 198.366 28 242.941 28C302.768 28 351.268 74.1151 351.268 131C351.268 187.885 302.768 234 242.941 234Z" fill="white" fill-opacity="0.5"/>
</g>
</g>
<defs>
<filter id="filter0_f_110_264" x="27.9106" y="138.914" width="201.308" height="161.285" filterUnits="userSpaceOnUse" color-interpolation-filters="sRGB">
<feFlood flood-opacity="0" result="BackgroundImageFix"/>
<feBlend mode="normal" in="SourceGraphic" in2="BackgroundImageFix" result="shape"/>
<feGaussianBlur stdDeviation="2" result="effect1_foregroundBlur_110_264"/>
</filter>
<filter id="filter1_f_110_264" x="349.822" y="180.795" width="13.3613" height="13.8477" filterUnits="userSpaceOnUse" color-interpolation-filters="sRGB">
<feFlood flood-opacity="0" result="BackgroundImageFix"/>
<feBlend mode="normal" in="SourceGraphic" in2="BackgroundImageFix" result="shape"/>
<feGaussianBlur stdDeviation="1" result="effect1_foregroundBlur_110_264"/>
</filter>
<filter id="filter2_f_110_264" x="317.818" y="132.385" width="19.3301" height="20.168" filterUnits="userSpaceOnUse" color-interpolation-filters="sRGB">
<feFlood flood-opacity="0" result="BackgroundImageFix"/>
<feBlend mode="normal" in="SourceGraphic" in2="BackgroundImageFix" result="shape"/>
<feGaussianBlur stdDeviation="1" result="effect1_foregroundBlur_110_264"/>
</filter>
<filter id="filter3_f_110_264" x="211.794" y="225.939" width="16.7666" height="17.4531" filterUnits="userSpaceOnUse" color-interpolation-filters="sRGB">
<feFlood flood-opacity="0" result="BackgroundImageFix"/>
<feBlend mode="normal" in="SourceGraphic" in2="BackgroundImageFix" result="shape"/>
<feGaussianBlur stdDeviation="1" result="effect1_foregroundBlur_110_264"/>
</filter>
<filter id="filter4_f_110_264" x="244.877" y="251.666" width="13.4062" height="13.8965" filterUnits="userSpaceOnUse" color-interpolation-filters="sRGB">
<feFlood flood-opacity="0" result="BackgroundImageFix"/>
<feBlend mode="normal" in="SourceGraphic" in2="BackgroundImageFix" result="shape"/>
<feGaussianBlur stdDeviation="1" result="effect1_foregroundBlur_110_264"/>
</filter>
<filter id="filter5_f_110_264" x="234.637" y="144.002" width="132.639" height="136.6" filterUnits="userSpaceOnUse" color-interpolation-filters="sRGB">
<feFlood flood-opacity="0" result="BackgroundImageFix"/>
<feBlend mode="normal" in="SourceGraphic" in2="BackgroundImageFix" result="shape"/>
<feGaussianBlur stdDeviation="2" result="effect1_foregroundBlur_110_264"/>
</filter>
<filter id="filter6_df_110_264" x="0" y="0" width="391.268" height="266" filterUnits="userSpaceOnUse" color-interpolation-filters="sRGB">
<feFlood flood-opacity="0" result="BackgroundImageFix"/>
<feColorMatrix in="SourceAlpha" type="matrix" values="0 0 0 0 0 0 0 0 0 0 0 0 0 0 0 0 0 0 127 0" result="hardAlpha"/>
<feOffset dx="10" dy="2"/>
<feGaussianBlur stdDeviation="15"/>
<feColorMatrix type="matrix" values="0 0 0 0 0 0 0 0 0 0 0 0 0 0 0 0 0 0 0.25 0"/>
<feBlend mode="normal" in2="BackgroundImageFix" result="effect1_dropShadow_110_264"/>
<feBlend mode="normal" in="SourceGraphic" in2="effect1_dropShadow_110_264" result="shape"/>
<feGaussianBlur stdDeviation="2" result="effect2_foregroundBlur_110_264"/>
</filter>
<filter id="filter7_d_110_264" x="0" y="0" width="391.268" height="266" filterUnits="userSpaceOnUse" color-interpolation-filters="sRGB">
<feFlood flood-opacity="0" result="BackgroundImageFix"/>
<feColorMatrix in="SourceAlpha" type="matrix" values="0 0 0 0 0 0 0 0 0 0 0 0 0 0 0 0 0 0 127 0" result="hardAlpha"/>
<feOffset dx="10" dy="2"/>
<feGaussianBlur stdDeviation="15"/>
<feColorMatrix type="matrix" values="0 0 0 0 0.501961 0 0 0 0 0.501961 0 0 0 0 0.501961 0 0 0 0.302 0"/>
<feBlend mode="normal" in2="BackgroundImageFix" result="effect1_dropShadow_110_264"/>
<feBlend mode="normal" in="SourceGraphic" in2="effect1_dropShadow_110_264" result="shape"/>
</filter>
<linearGradient id="paint0_linear_110_264" x1="154.164" y1="53.9561" x2="220.206" y2="245.168" gradientUnits="userSpaceOnUse">
<stop stop-color="white" stop-opacity="0.596"/>
<stop offset="1" stop-color="#F7F7F7" stop-opacity="0.204"/>
</linearGradient>
</defs>
</svg>
