<svg width="254" height="236" viewBox="0 0 254 236" fill="none" xmlns="http://www.w3.org/2000/svg">
<g filter="url(#filter0_f_2_883)">
<path d="M207.572 141.355V229.443" stroke="#42A0F0" stroke-width="6" stroke-linecap="round"/>
<path d="M207.395 162.889L222.565 147.229" stroke="#42A0F0" stroke-width="6" stroke-linecap="round"/>
<path d="M207.395 162.889L191.735 147.229" stroke="#42A0F0" stroke-width="6" stroke-linecap="round"/>
<path d="M207.395 209.867L222.565 225.527" stroke="#42A0F0" stroke-width="6" stroke-linecap="round"/>
<path d="M207.395 209.867L191.735 225.527" stroke="#42A0F0" stroke-width="6" stroke-linecap="round"/>
<path d="M245.503 163.744L169.218 207.788" stroke="#42A0F0" stroke-width="6" stroke-linecap="round"/>
<path d="M226.768 174.353L247.915 179.661" stroke="#42A0F0" stroke-width="6" stroke-linecap="round"/>
<path d="M226.768 174.355L232.5 152.963" stroke="#42A0F0" stroke-width="6" stroke-linecap="round"/>
<path d="M186.082 197.844L180.105 218.812" stroke="#42A0F0" stroke-width="6" stroke-linecap="round"/>
<path d="M186.082 197.845L164.69 192.113" stroke="#42A0F0" stroke-width="6" stroke-linecap="round"/>
<path d="M245.082 207.787L168.796 163.743" stroke="#42A0F0" stroke-width="6" stroke-linecap="round"/>
<path d="M226.522 196.867L232.499 217.835" stroke="#42A0F0" stroke-width="6" stroke-linecap="round"/>
<path d="M226.522 196.869L247.915 191.137" stroke="#42A0F0" stroke-width="6" stroke-linecap="round"/>
<path d="M185.836 173.377L164.689 178.685" stroke="#42A0F0" stroke-width="6" stroke-linecap="round"/>
<path d="M185.836 173.378L180.104 151.986" stroke="#42A0F0" stroke-width="6" stroke-linecap="round"/>
<path d="M122.688 6V94.0873" stroke="#42A0F0" stroke-width="6" stroke-linecap="round"/>
<path d="M122.51 27.5312L137.681 11.8711" stroke="#42A0F0" stroke-width="6" stroke-linecap="round"/>
<path d="M122.511 27.5312L106.851 11.8711" stroke="#42A0F0" stroke-width="6" stroke-linecap="round"/>
<path d="M122.511 74.5117L137.681 90.1718" stroke="#42A0F0" stroke-width="6" stroke-linecap="round"/>
<path d="M122.511 74.5117L106.851 90.1718" stroke="#42A0F0" stroke-width="6" stroke-linecap="round"/>
<path d="M160.619 28.3906L84.3333 72.4343" stroke="#42A0F0" stroke-width="6" stroke-linecap="round"/>
<path d="M141.884 39.0019L163.031 44.3097" stroke="#42A0F0" stroke-width="6" stroke-linecap="round"/>
<path d="M141.884 39.0014L147.616 17.6094" stroke="#42A0F0" stroke-width="6" stroke-linecap="round"/>
<path d="M101.198 62.4902L95.2214 83.4581" stroke="#42A0F0" stroke-width="6" stroke-linecap="round"/>
<path d="M101.198 62.4917L79.8061 56.7597" stroke="#42A0F0" stroke-width="6" stroke-linecap="round"/>
<path d="M160.198 72.4297L83.9119 28.386" stroke="#42A0F0" stroke-width="6" stroke-linecap="round"/>
<path d="M141.638 61.5098L147.615 82.4777" stroke="#42A0F0" stroke-width="6" stroke-linecap="round"/>
<path d="M141.638 61.5113L163.03 55.7793" stroke="#42A0F0" stroke-width="6" stroke-linecap="round"/>
<path d="M100.952 38.0195L79.805 43.3273" stroke="#42A0F0" stroke-width="6" stroke-linecap="round"/>
<path d="M100.952 38.021L95.2202 16.6289" stroke="#42A0F0" stroke-width="6" stroke-linecap="round"/>
<path d="M49.2734 141.355L49.2734 229.443" stroke="#42A0F0" stroke-width="6" stroke-linecap="round"/>
<path d="M49.0962 162.889L64.2665 147.229" stroke="#42A0F0" stroke-width="6" stroke-linecap="round"/>
<path d="M49.0966 162.889L33.4365 147.229" stroke="#42A0F0" stroke-width="6" stroke-linecap="round"/>
<path d="M49.0962 209.867L64.2665 225.527" stroke="#42A0F0" stroke-width="6" stroke-linecap="round"/>
<path d="M49.0966 209.867L33.4365 225.527" stroke="#42A0F0" stroke-width="6" stroke-linecap="round"/>
<path d="M87.2051 163.744L10.9192 207.788" stroke="#42A0F0" stroke-width="6" stroke-linecap="round"/>
<path d="M68.4697 174.353L89.6169 179.661" stroke="#42A0F0" stroke-width="6" stroke-linecap="round"/>
<path d="M68.4697 174.355L74.2017 152.963" stroke="#42A0F0" stroke-width="6" stroke-linecap="round"/>
<path d="M27.7837 197.844L21.8068 218.812" stroke="#42A0F0" stroke-width="6" stroke-linecap="round"/>
<path d="M27.7836 197.845L6.39159 192.113" stroke="#42A0F0" stroke-width="6" stroke-linecap="round"/>
<path d="M86.7837 207.787L10.4978 163.743" stroke="#42A0F0" stroke-width="6" stroke-linecap="round"/>
<path d="M68.2246 196.867L74.2015 217.835" stroke="#42A0F0" stroke-width="6" stroke-linecap="round"/>
<path d="M68.2246 196.869L89.6167 191.137" stroke="#42A0F0" stroke-width="6" stroke-linecap="round"/>
<path d="M27.5386 173.377L6.39142 178.685" stroke="#42A0F0" stroke-width="6" stroke-linecap="round"/>
<path d="M27.5386 173.378L21.8066 151.986" stroke="#42A0F0" stroke-width="6" stroke-linecap="round"/>
</g>
<defs>
<filter id="filter0_f_2_883" x="0.390625" y="0" width="253.525" height="235.443" filterUnits="userSpaceOnUse" color-interpolation-filters="sRGB">
<feFlood flood-opacity="0" result="BackgroundImageFix"/>
<feBlend mode="normal" in="SourceGraphic" in2="BackgroundImageFix" result="shape"/>
<feGaussianBlur stdDeviation="1.5" result="effect1_foregroundBlur_2_883"/>
</filter>
</defs>
</svg>
