<svg width="392" height="314" viewBox="0 0 392 314" fill="none" xmlns="http://www.w3.org/2000/svg">
<g filter="url(#filter0_f_110_425)">
<path d="M114.961 212.282C114.961 212.282 172.544 215.394 198.08 207.982C223.616 200.57 223.58 162.082 198.08 152.59C172.58 143.098 163.862 177.015 163.862 177.015" stroke="#D0D0D0" stroke-width="16" stroke-linecap="round"/>
<path d="M39.9111 256.856C39.9111 256.856 126.465 249.036 164.623 256.856C202.781 264.676 190.631 287.111 172.547 288.136C154.463 289.161 137.776 277.28 137.776 277.28" stroke="#D0D0D0" stroke-width="16" stroke-linecap="round"/>
</g>
<g filter="url(#filter1_df_110_425)">
<g filter="url(#filter2_d_110_425)">
<path d="M235.562 233.765C233.629 233.92 231.676 233.999 229.705 234H92.1812C82.7149 234.035 73.3348 232.201 64.579 228.603C55.8232 225.005 47.8639 219.714 41.1577 213.032C34.4516 206.351 29.1305 198.412 25.4997 189.669C21.869 180.927 20 171.554 20 162.087C20 152.621 21.869 143.248 25.4997 134.506C29.1305 125.763 34.4516 117.824 41.1577 111.143C47.8639 104.461 55.8232 99.17 64.579 95.5718C73.3348 91.9737 82.7149 90.1397 92.1812 90.175H143.456C160.08 53.6 198.368 28 242.941 28C302.768 28 351.268 74.115 351.268 131C351.268 187.885 302.768 234 242.941 234C240.461 234 238.001 233.922 235.562 233.765Z" fill="url(#paint0_linear_110_425)"/>
<path d="M242.941 233C250.227 233 257.508 232.302 264.581 230.926C271.475 229.585 278.255 227.584 284.733 224.978C291.094 222.42 297.229 219.254 302.967 215.568C308.65 211.917 313.994 207.725 318.851 203.107C323.706 198.49 328.114 193.411 331.952 188.009C335.826 182.557 339.154 176.728 341.842 170.686C344.579 164.532 346.681 158.093 348.09 151.547C349.535 144.831 350.268 137.917 350.268 131C350.268 124.082 349.535 117.169 348.09 110.452C346.681 103.906 344.579 97.4673 341.842 91.3142C339.154 85.2716 335.826 79.4433 331.952 73.991C328.114 68.5893 323.706 63.5095 318.851 58.8928C313.994 54.2752 308.65 50.0829 302.967 46.4323C297.229 42.7461 291.094 39.5801 284.733 37.0221C278.255 34.4165 271.475 32.4154 264.581 31.0742C257.508 29.6979 250.227 29 242.941 29C221.57 29 200.931 34.9523 183.254 46.2135C174.734 51.6418 167.077 58.1939 160.497 65.6878C153.875 73.2291 148.448 81.6069 144.366 90.5885L144.1 91.1747H143.456H92.1807C82.6072 91.1747 73.3205 93.0495 64.5787 96.747C60.3771 98.5242 56.3245 100.724 52.5336 103.285C48.7784 105.822 45.2472 108.735 42.038 111.945C38.8288 115.154 35.9152 118.685 33.3783 122.44C30.8172 126.231 28.6175 130.284 26.8404 134.485C23.1429 143.227 21.2681 152.514 21.2681 162.087C21.2681 171.661 23.1429 180.948 26.8404 189.689C28.6175 193.891 30.8172 197.944 33.3783 201.735C35.9152 205.49 38.8288 209.021 42.038 212.23C45.2472 215.439 48.7784 218.353 52.5336 220.89C56.3245 223.451 60.3771 225.651 64.5787 227.428C73.3205 231.125 82.6072 233 92.1807 233H229.705C231.628 233 233.572 232.922 235.482 232.768L235.554 232.762L235.626 232.767C238.046 232.922 240.507 233 242.941 233ZM242.941 234C240.461 234 238 233.921 235.562 233.765C233.632 233.92 231.676 234 229.705 234H92.1807C52.4646 234 20.2681 201.803 20.2681 162.087C20.2681 122.371 52.4646 90.1747 92.1807 90.1747H143.456C160.08 53.5954 198.366 28 242.941 28C302.768 28 351.268 74.1151 351.268 131C351.268 187.885 302.768 234 242.941 234Z" fill="white" fill-opacity="0.5"/>
</g>
</g>
<g filter="url(#filter3_f_110_425)">
<path d="M122.884 53V66.394" stroke="#42A0F0" stroke-linecap="round"/>
<path d="M122.594 56.2687L124.773 55.1797" stroke="#42A0F0" stroke-linecap="round"/>
<path d="M122.594 56.2687L119.326 55.1797" stroke="#42A0F0" stroke-linecap="round"/>
<path d="M122.594 63.8945L124.773 64.9835" stroke="#42A0F0" stroke-linecap="round"/>
<path d="M122.594 63.8945L119.326 64.9835" stroke="#42A0F0" stroke-linecap="round"/>
<path d="M128.652 56.4043L117.052 63.1013" stroke="#42A0F0" stroke-linecap="round"/>
<path d="M125.803 58.0186L129.018 58.826" stroke="#42A0F0" stroke-linecap="round"/>
<path d="M125.803 58.0181L126.674 54.7656" stroke="#42A0F0" stroke-linecap="round"/>
<path d="M119.616 61.5898L118.707 64.7783" stroke="#42A0F0" stroke-linecap="round"/>
<path d="M119.616 61.5894L116.363 60.7178" stroke="#42A0F0" stroke-linecap="round"/>
<path d="M128.587 63.1016L116.988 56.4046" stroke="#42A0F0" stroke-linecap="round"/>
<path d="M125.766 61.4404L126.674 64.6288" stroke="#42A0F0" stroke-linecap="round"/>
<path d="M125.766 61.4399L129.018 60.5684" stroke="#42A0F0" stroke-linecap="round"/>
<path d="M119.579 57.8691L116.363 58.6766" stroke="#42A0F0" stroke-linecap="round"/>
<path d="M119.579 57.8686L118.707 54.6161" stroke="#42A0F0" stroke-linecap="round"/>
</g>
<g filter="url(#filter4_f_110_425)">
<path d="M307.669 82.6543V105.614" stroke="#42A0F0" stroke-linecap="round"/>
<path d="M306.712 87.8624L311.07 86.7734" stroke="#42A0F0" stroke-linecap="round"/>
<path d="M306.713 87.8624L301.266 86.7734" stroke="#42A0F0" stroke-linecap="round"/>
<path d="M306.712 100.936L311.07 103.115" stroke="#42A0F0" stroke-linecap="round"/>
<path d="M306.713 100.936L301.266 103.115" stroke="#42A0F0" stroke-linecap="round"/>
<path d="M317.556 88.4883L297.672 99.9683" stroke="#42A0F0" stroke-linecap="round"/>
<path d="M312.672 91.2558L318.185 92.6391" stroke="#42A0F0" stroke-linecap="round"/>
<path d="M312.672 91.2558L314.167 85.6797" stroke="#42A0F0" stroke-linecap="round"/>
<path d="M302.068 97.3789L300.51 102.844" stroke="#42A0F0" stroke-linecap="round"/>
<path d="M302.068 97.3789L296.492 95.8847" stroke="#42A0F0" stroke-linecap="round"/>
<path d="M317.446 99.9688L297.562 88.4888" stroke="#42A0F0" stroke-linecap="round"/>
<path d="M312.608 97.1231L314.167 102.588" stroke="#42A0F0" stroke-linecap="round"/>
<path d="M312.608 97.123L318.185 95.6289" stroke="#42A0F0" stroke-linecap="round"/>
<path d="M302.004 91L296.492 92.3833" stroke="#42A0F0" stroke-linecap="round"/>
<path d="M302.004 91L300.51 85.4238" stroke="#42A0F0" stroke-linecap="round"/>
</g>
<g filter="url(#filter5_f_110_425)">
<path d="M293.526 251.521V270.371" stroke="#42A0F0" stroke-linecap="round"/>
<path d="M292.549 255.64L295.817 254.551" stroke="#42A0F0" stroke-linecap="round"/>
<path d="M292.549 255.64L288.191 254.551" stroke="#42A0F0" stroke-linecap="round"/>
<path d="M292.549 266.535L295.817 268.714" stroke="#42A0F0" stroke-linecap="round"/>
<path d="M292.549 266.535L288.191 268.714" stroke="#42A0F0" stroke-linecap="round"/>
<path d="M301.644 256.312L285.319 265.738" stroke="#42A0F0" stroke-linecap="round"/>
<path d="M297.635 258.584L302.16 259.719" stroke="#42A0F0" stroke-linecap="round"/>
<path d="M297.635 258.583L298.861 254.006" stroke="#42A0F0" stroke-linecap="round"/>
<path d="M288.928 263.609L287.649 268.096" stroke="#42A0F0" stroke-linecap="round"/>
<path d="M288.928 263.609L284.351 262.383" stroke="#42A0F0" stroke-linecap="round"/>
<path d="M301.554 265.738L285.23 256.313" stroke="#42A0F0" stroke-linecap="round"/>
<path d="M297.583 263.401L298.862 267.887" stroke="#42A0F0" stroke-linecap="round"/>
<path d="M297.583 263.4L302.16 262.174" stroke="#42A0F0" stroke-linecap="round"/>
<path d="M288.876 258.375L284.351 259.511" stroke="#42A0F0" stroke-linecap="round"/>
<path d="M288.876 258.375L287.65 253.797" stroke="#42A0F0" stroke-linecap="round"/>
</g>
<g filter="url(#filter6_f_110_425)">
<path d="M138.732 295.1V311.705" stroke="#42A0F0" stroke-linecap="round"/>
<path d="M137.846 299.218L141.114 298.129" stroke="#42A0F0" stroke-linecap="round"/>
<path d="M137.846 299.218L134.578 298.129" stroke="#42A0F0" stroke-linecap="round"/>
<path d="M137.846 307.934L141.114 310.113" stroke="#42A0F0" stroke-linecap="round"/>
<path d="M137.846 307.934L134.578 310.113" stroke="#42A0F0" stroke-linecap="round"/>
<path d="M145.883 299.32L131.503 307.623" stroke="#42A0F0" stroke-linecap="round"/>
<path d="M142.352 301.32L146.338 302.321" stroke="#42A0F0" stroke-linecap="round"/>
<path d="M142.352 301.32L143.432 297.287" stroke="#42A0F0" stroke-linecap="round"/>
<path d="M134.682 305.748L133.556 309.701" stroke="#42A0F0" stroke-linecap="round"/>
<path d="M134.682 305.748L130.65 304.667" stroke="#42A0F0" stroke-linecap="round"/>
<path d="M145.804 307.623L131.423 299.321" stroke="#42A0F0" stroke-linecap="round"/>
<path d="M142.305 305.565L143.432 309.518" stroke="#42A0F0" stroke-linecap="round"/>
<path d="M142.305 305.565L146.338 304.484" stroke="#42A0F0" stroke-linecap="round"/>
<path d="M134.636 301.137L130.649 302.138" stroke="#42A0F0" stroke-linecap="round"/>
<path d="M134.636 301.137L133.555 297.104" stroke="#42A0F0" stroke-linecap="round"/>
</g>
<g filter="url(#filter7_f_110_425)">
<path d="M76.0757 225.373V238.841" stroke="#42A0F0" stroke-linecap="round"/>
<path d="M75.7466 228.401L77.9256 227.312" stroke="#42A0F0" stroke-linecap="round"/>
<path d="M75.7465 228.401L72.4785 227.312" stroke="#42A0F0" stroke-linecap="round"/>
<path d="M75.7466 236.027L77.9256 237.116" stroke="#42A0F0" stroke-linecap="round"/>
<path d="M75.7465 236.027L72.4785 237.116" stroke="#42A0F0" stroke-linecap="round"/>
<path d="M81.874 228.795L70.2104 235.529" stroke="#42A0F0" stroke-linecap="round"/>
<path d="M79.0093 230.42L82.242 231.231" stroke="#42A0F0" stroke-linecap="round"/>
<path d="M79.0095 230.419L79.8857 227.148" stroke="#42A0F0" stroke-linecap="round"/>
<path d="M72.7886 234.012L71.8748 237.217" stroke="#42A0F0" stroke-linecap="round"/>
<path d="M72.7888 234.011L69.5185 233.135" stroke="#42A0F0" stroke-linecap="round"/>
<path d="M81.8101 235.529L70.1464 228.795" stroke="#42A0F0" stroke-linecap="round"/>
<path d="M78.9726 233.862L79.8864 237.067" stroke="#42A0F0" stroke-linecap="round"/>
<path d="M78.9724 233.861L82.2427 232.984" stroke="#42A0F0" stroke-linecap="round"/>
<path d="M72.752 230.27L69.5192 231.081" stroke="#42A0F0" stroke-linecap="round"/>
<path d="M72.7517 230.269L71.8755 226.998" stroke="#42A0F0" stroke-linecap="round"/>
</g>
<defs>
<filter id="filter0_f_110_425" x="27.9106" y="138.914" width="201.308" height="161.285" filterUnits="userSpaceOnUse" color-interpolation-filters="sRGB">
<feFlood flood-opacity="0" result="BackgroundImageFix"/>
<feBlend mode="normal" in="SourceGraphic" in2="BackgroundImageFix" result="shape"/>
<feGaussianBlur stdDeviation="2" result="effect1_foregroundBlur_110_425"/>
</filter>
<filter id="filter1_df_110_425" x="0" y="0" width="391.268" height="266" filterUnits="userSpaceOnUse" color-interpolation-filters="sRGB">
<feFlood flood-opacity="0" result="BackgroundImageFix"/>
<feColorMatrix in="SourceAlpha" type="matrix" values="0 0 0 0 0 0 0 0 0 0 0 0 0 0 0 0 0 0 127 0" result="hardAlpha"/>
<feOffset dx="10" dy="2"/>
<feGaussianBlur stdDeviation="15"/>
<feColorMatrix type="matrix" values="0 0 0 0 0 0 0 0 0 0 0 0 0 0 0 0 0 0 0.25 0"/>
<feBlend mode="normal" in2="BackgroundImageFix" result="effect1_dropShadow_110_425"/>
<feBlend mode="normal" in="SourceGraphic" in2="effect1_dropShadow_110_425" result="shape"/>
<feGaussianBlur stdDeviation="2" result="effect2_foregroundBlur_110_425"/>
</filter>
<filter id="filter2_d_110_425" x="0" y="0" width="391.268" height="266" filterUnits="userSpaceOnUse" color-interpolation-filters="sRGB">
<feFlood flood-opacity="0" result="BackgroundImageFix"/>
<feColorMatrix in="SourceAlpha" type="matrix" values="0 0 0 0 0 0 0 0 0 0 0 0 0 0 0 0 0 0 127 0" result="hardAlpha"/>
<feOffset dx="10" dy="2"/>
<feGaussianBlur stdDeviation="15"/>
<feColorMatrix type="matrix" values="0 0 0 0 0.501961 0 0 0 0 0.501961 0 0 0 0 0.501961 0 0 0 0.302 0"/>
<feBlend mode="normal" in2="BackgroundImageFix" result="effect1_dropShadow_110_425"/>
<feBlend mode="normal" in="SourceGraphic" in2="effect1_dropShadow_110_425" result="shape"/>
</filter>
<filter id="filter3_f_110_425" x="114.863" y="51.5" width="15.6558" height="16.3945" filterUnits="userSpaceOnUse" color-interpolation-filters="sRGB">
<feFlood flood-opacity="0" result="BackgroundImageFix"/>
<feBlend mode="normal" in="SourceGraphic" in2="BackgroundImageFix" result="shape"/>
<feGaussianBlur stdDeviation="0.5" result="effect1_foregroundBlur_110_425"/>
</filter>
<filter id="filter4_f_110_425" x="294.992" y="81.1543" width="24.6929" height="25.9609" filterUnits="userSpaceOnUse" color-interpolation-filters="sRGB">
<feFlood flood-opacity="0" result="BackgroundImageFix"/>
<feBlend mode="normal" in="SourceGraphic" in2="BackgroundImageFix" result="shape"/>
<feGaussianBlur stdDeviation="0.5" result="effect1_foregroundBlur_110_425"/>
</filter>
<filter id="filter5_f_110_425" x="282.851" y="250.021" width="20.8096" height="21.8496" filterUnits="userSpaceOnUse" color-interpolation-filters="sRGB">
<feFlood flood-opacity="0" result="BackgroundImageFix"/>
<feBlend mode="normal" in="SourceGraphic" in2="BackgroundImageFix" result="shape"/>
<feGaussianBlur stdDeviation="0.5" result="effect1_foregroundBlur_110_425"/>
</filter>
<filter id="filter6_f_110_425" x="129.149" y="293.6" width="18.6895" height="19.6055" filterUnits="userSpaceOnUse" color-interpolation-filters="sRGB">
<feFlood flood-opacity="0" result="BackgroundImageFix"/>
<feBlend mode="normal" in="SourceGraphic" in2="BackgroundImageFix" result="shape"/>
<feGaussianBlur stdDeviation="0.5" result="effect1_foregroundBlur_110_425"/>
</filter>
<filter id="filter7_f_110_425" x="68.0186" y="223.873" width="15.7241" height="16.4688" filterUnits="userSpaceOnUse" color-interpolation-filters="sRGB">
<feFlood flood-opacity="0" result="BackgroundImageFix"/>
<feBlend mode="normal" in="SourceGraphic" in2="BackgroundImageFix" result="shape"/>
<feGaussianBlur stdDeviation="0.5" result="effect1_foregroundBlur_110_425"/>
</filter>
<linearGradient id="paint0_linear_110_425" x1="154.164" y1="53.9561" x2="220.206" y2="245.168" gradientUnits="userSpaceOnUse">
<stop stop-color="white" stop-opacity="0.596"/>
<stop offset="1" stop-color="#F7F7F7" stop-opacity="0.204"/>
</linearGradient>
</defs>
</svg>
