<svg width="252" height="263" viewBox="0 0 252 263" fill="none" xmlns="http://www.w3.org/2000/svg">
<g filter="url(#filter0_f_2_730)">
<path d="M126.891 41.2207L126.891 237.324" stroke="#42A0F0" stroke-width="10" stroke-linecap="round"/>
<path d="M126.499 89.1579L160.272 54.2949" stroke="#42A0F0" stroke-width="10" stroke-linecap="round"/>
<path d="M126.499 89.1579L91.6357 54.2949" stroke="#42A0F0" stroke-width="10" stroke-linecap="round"/>
<path d="M126.499 193.746L160.272 228.609" stroke="#42A0F0" stroke-width="10" stroke-linecap="round"/>
<path d="M126.499 193.746L91.6357 228.609" stroke="#42A0F0" stroke-width="10" stroke-linecap="round"/>
<path d="M211.337 91.0566L41.5067 189.108" stroke="#42A0F0" stroke-width="10" stroke-linecap="round"/>
<path d="M169.627 114.685L216.705 126.502" stroke="#42A0F0" stroke-width="10" stroke-linecap="round"/>
<path d="M169.626 114.686L182.387 67.0625" stroke="#42A0F0" stroke-width="10" stroke-linecap="round"/>
<path d="M79.0508 166.979L65.745 213.658" stroke="#42A0F0" stroke-width="10" stroke-linecap="round"/>
<path d="M79.0506 166.979L31.4269 154.219" stroke="#42A0F0" stroke-width="10" stroke-linecap="round"/>
<path d="M210.401 189.109L40.5707 91.0579" stroke="#42A0F0" stroke-width="10" stroke-linecap="round"/>
<path d="M169.082 164.801L182.388 211.481" stroke="#42A0F0" stroke-width="10" stroke-linecap="round"/>
<path d="M169.082 164.802L216.706 152.041" stroke="#42A0F0" stroke-width="10" stroke-linecap="round"/>
<path d="M78.5063 112.508L31.4276 124.325" stroke="#42A0F0" stroke-width="10" stroke-linecap="round"/>
<path d="M78.5065 112.509L65.7457 64.8849" stroke="#42A0F0" stroke-width="10" stroke-linecap="round"/>
</g>
<g filter="url(#filter1_f_2_730)">
<path d="M54.8838 2V15.394" stroke="#42A0F0" stroke-linecap="round"/>
<path d="M54.5938 5.26869L56.7727 4.17969" stroke="#42A0F0" stroke-linecap="round"/>
<path d="M54.5937 5.26869L51.3257 4.17969" stroke="#42A0F0" stroke-linecap="round"/>
<path d="M54.5938 12.8945L56.7727 13.9835" stroke="#42A0F0" stroke-linecap="round"/>
<path d="M54.5937 12.8945L51.3257 13.9835" stroke="#42A0F0" stroke-linecap="round"/>
<path d="M60.6519 5.4043L49.0523 12.1013" stroke="#42A0F0" stroke-linecap="round"/>
<path d="M57.8027 7.01863L61.0182 7.82605" stroke="#42A0F0" stroke-linecap="round"/>
<path d="M57.8028 7.01813L58.6743 3.76562" stroke="#42A0F0" stroke-linecap="round"/>
<path d="M51.6157 10.5898L50.7072 13.7783" stroke="#42A0F0" stroke-linecap="round"/>
<path d="M51.6158 10.5894L48.3633 9.71784" stroke="#42A0F0" stroke-linecap="round"/>
<path d="M60.5874 12.1016L48.9879 5.40456" stroke="#42A0F0" stroke-linecap="round"/>
<path d="M57.7656 10.4404L58.6741 13.6288" stroke="#42A0F0" stroke-linecap="round"/>
<path d="M57.7656 10.4399L61.0181 9.56836" stroke="#42A0F0" stroke-linecap="round"/>
<path d="M51.5786 6.86914L48.3631 7.67656" stroke="#42A0F0" stroke-linecap="round"/>
<path d="M51.5785 6.86865L50.707 3.61614" stroke="#42A0F0" stroke-linecap="round"/>
</g>
<g filter="url(#filter2_f_2_730)">
<path d="M239.669 31.6543V54.6143" stroke="#42A0F0" stroke-linecap="round"/>
<path d="M238.712 36.8624L243.07 35.7734" stroke="#42A0F0" stroke-linecap="round"/>
<path d="M238.713 36.8624L233.266 35.7734" stroke="#42A0F0" stroke-linecap="round"/>
<path d="M238.712 49.9355L243.07 52.1145" stroke="#42A0F0" stroke-linecap="round"/>
<path d="M238.713 49.9355L233.266 52.1145" stroke="#42A0F0" stroke-linecap="round"/>
<path d="M249.556 37.4883L229.672 48.9683" stroke="#42A0F0" stroke-linecap="round"/>
<path d="M244.672 40.2558L250.185 41.6391" stroke="#42A0F0" stroke-linecap="round"/>
<path d="M244.672 40.2558L246.167 34.6797" stroke="#42A0F0" stroke-linecap="round"/>
<path d="M234.068 46.3789L232.51 51.8442" stroke="#42A0F0" stroke-linecap="round"/>
<path d="M234.068 46.3789L228.492 44.8847" stroke="#42A0F0" stroke-linecap="round"/>
<path d="M249.446 48.9688L229.562 37.4888" stroke="#42A0F0" stroke-linecap="round"/>
<path d="M244.608 46.1231L246.167 51.5883" stroke="#42A0F0" stroke-linecap="round"/>
<path d="M244.608 46.123L250.185 44.6289" stroke="#42A0F0" stroke-linecap="round"/>
<path d="M234.004 40L228.492 41.3833" stroke="#42A0F0" stroke-linecap="round"/>
<path d="M234.004 40L232.51 34.4238" stroke="#42A0F0" stroke-linecap="round"/>
</g>
<g filter="url(#filter3_f_2_730)">
<path d="M225.526 200.521V219.371" stroke="#42A0F0" stroke-linecap="round"/>
<path d="M224.549 204.64L227.817 203.551" stroke="#42A0F0" stroke-linecap="round"/>
<path d="M224.549 204.64L220.191 203.551" stroke="#42A0F0" stroke-linecap="round"/>
<path d="M224.549 215.535L227.817 217.714" stroke="#42A0F0" stroke-linecap="round"/>
<path d="M224.549 215.535L220.191 217.714" stroke="#42A0F0" stroke-linecap="round"/>
<path d="M233.644 205.312L217.319 214.738" stroke="#42A0F0" stroke-linecap="round"/>
<path d="M229.635 207.584L234.16 208.719" stroke="#42A0F0" stroke-linecap="round"/>
<path d="M229.635 207.583L230.861 203.006" stroke="#42A0F0" stroke-linecap="round"/>
<path d="M220.928 212.609L219.649 217.096" stroke="#42A0F0" stroke-linecap="round"/>
<path d="M220.928 212.609L216.351 211.383" stroke="#42A0F0" stroke-linecap="round"/>
<path d="M233.554 214.738L217.23 205.313" stroke="#42A0F0" stroke-linecap="round"/>
<path d="M229.583 212.401L230.862 216.887" stroke="#42A0F0" stroke-linecap="round"/>
<path d="M229.583 212.4L234.16 211.174" stroke="#42A0F0" stroke-linecap="round"/>
<path d="M220.876 207.375L216.351 208.511" stroke="#42A0F0" stroke-linecap="round"/>
<path d="M220.876 207.375L219.65 202.797" stroke="#42A0F0" stroke-linecap="round"/>
</g>
<g filter="url(#filter4_f_2_730)">
<path d="M70.7324 244.1V260.705" stroke="#42A0F0" stroke-linecap="round"/>
<path d="M69.8457 248.218L73.1137 247.129" stroke="#42A0F0" stroke-linecap="round"/>
<path d="M69.8456 248.218L66.5776 247.129" stroke="#42A0F0" stroke-linecap="round"/>
<path d="M69.8457 256.934L73.1137 259.113" stroke="#42A0F0" stroke-linecap="round"/>
<path d="M69.8456 256.934L66.5776 259.113" stroke="#42A0F0" stroke-linecap="round"/>
<path d="M77.8833 248.32L63.5029 256.623" stroke="#42A0F0" stroke-linecap="round"/>
<path d="M74.3517 250.32L78.3382 251.321" stroke="#42A0F0" stroke-linecap="round"/>
<path d="M74.3516 250.32L75.4321 246.287" stroke="#42A0F0" stroke-linecap="round"/>
<path d="M66.6821 254.748L65.5556 258.701" stroke="#42A0F0" stroke-linecap="round"/>
<path d="M66.6821 254.748L62.6495 253.667" stroke="#42A0F0" stroke-linecap="round"/>
<path d="M77.8037 256.623L63.4234 248.321" stroke="#42A0F0" stroke-linecap="round"/>
<path d="M74.3053 254.565L75.4318 258.518" stroke="#42A0F0" stroke-linecap="round"/>
<path d="M74.3054 254.565L78.3379 253.484" stroke="#42A0F0" stroke-linecap="round"/>
<path d="M66.6357 250.137L62.6492 251.138" stroke="#42A0F0" stroke-linecap="round"/>
<path d="M66.6358 250.137L65.5553 246.104" stroke="#42A0F0" stroke-linecap="round"/>
</g>
<g filter="url(#filter5_f_2_730)">
<path d="M8.07568 174.373V187.841" stroke="#42A0F0" stroke-linecap="round"/>
<path d="M7.74658 177.401L9.92558 176.312" stroke="#42A0F0" stroke-linecap="round"/>
<path d="M7.74652 177.401L4.47852 176.312" stroke="#42A0F0" stroke-linecap="round"/>
<path d="M7.74658 185.027L9.92558 186.116" stroke="#42A0F0" stroke-linecap="round"/>
<path d="M7.74652 185.027L4.47852 186.116" stroke="#42A0F0" stroke-linecap="round"/>
<path d="M13.874 177.795L2.21039 184.529" stroke="#42A0F0" stroke-linecap="round"/>
<path d="M11.0093 179.42L14.242 180.231" stroke="#42A0F0" stroke-linecap="round"/>
<path d="M11.0095 179.419L11.8857 176.148" stroke="#42A0F0" stroke-linecap="round"/>
<path d="M4.78857 183.012L3.87481 186.217" stroke="#42A0F0" stroke-linecap="round"/>
<path d="M4.7888 183.011L1.51853 182.135" stroke="#42A0F0" stroke-linecap="round"/>
<path d="M13.8101 184.529L2.14643 177.795" stroke="#42A0F0" stroke-linecap="round"/>
<path d="M10.9726 182.862L11.8864 186.067" stroke="#42A0F0" stroke-linecap="round"/>
<path d="M10.9724 182.861L14.2427 181.984" stroke="#42A0F0" stroke-linecap="round"/>
<path d="M4.75195 179.27L1.51919 180.081" stroke="#42A0F0" stroke-linecap="round"/>
<path d="M4.75173 179.269L3.87547 175.998" stroke="#42A0F0" stroke-linecap="round"/>
</g>
<defs>
<filter id="filter0_f_2_730" x="22.4258" y="32.2207" width="203.282" height="214.104" filterUnits="userSpaceOnUse" color-interpolation-filters="sRGB">
<feFlood flood-opacity="0" result="BackgroundImageFix"/>
<feBlend mode="normal" in="SourceGraphic" in2="BackgroundImageFix" result="shape"/>
<feGaussianBlur stdDeviation="2" result="effect1_foregroundBlur_2_730"/>
</filter>
<filter id="filter1_f_2_730" x="46.8628" y="0.5" width="15.6558" height="16.3945" filterUnits="userSpaceOnUse" color-interpolation-filters="sRGB">
<feFlood flood-opacity="0" result="BackgroundImageFix"/>
<feBlend mode="normal" in="SourceGraphic" in2="BackgroundImageFix" result="shape"/>
<feGaussianBlur stdDeviation="0.5" result="effect1_foregroundBlur_2_730"/>
</filter>
<filter id="filter2_f_2_730" x="226.992" y="30.1543" width="24.6929" height="25.9609" filterUnits="userSpaceOnUse" color-interpolation-filters="sRGB">
<feFlood flood-opacity="0" result="BackgroundImageFix"/>
<feBlend mode="normal" in="SourceGraphic" in2="BackgroundImageFix" result="shape"/>
<feGaussianBlur stdDeviation="0.5" result="effect1_foregroundBlur_2_730"/>
</filter>
<filter id="filter3_f_2_730" x="214.851" y="199.021" width="20.8096" height="21.8496" filterUnits="userSpaceOnUse" color-interpolation-filters="sRGB">
<feFlood flood-opacity="0" result="BackgroundImageFix"/>
<feBlend mode="normal" in="SourceGraphic" in2="BackgroundImageFix" result="shape"/>
<feGaussianBlur stdDeviation="0.5" result="effect1_foregroundBlur_2_730"/>
</filter>
<filter id="filter4_f_2_730" x="61.1489" y="242.6" width="18.6895" height="19.6055" filterUnits="userSpaceOnUse" color-interpolation-filters="sRGB">
<feFlood flood-opacity="0" result="BackgroundImageFix"/>
<feBlend mode="normal" in="SourceGraphic" in2="BackgroundImageFix" result="shape"/>
<feGaussianBlur stdDeviation="0.5" result="effect1_foregroundBlur_2_730"/>
</filter>
<filter id="filter5_f_2_730" x="0.0185547" y="172.873" width="15.7241" height="16.4688" filterUnits="userSpaceOnUse" color-interpolation-filters="sRGB">
<feFlood flood-opacity="0" result="BackgroundImageFix"/>
<feBlend mode="normal" in="SourceGraphic" in2="BackgroundImageFix" result="shape"/>
<feGaussianBlur stdDeviation="0.5" result="effect1_foregroundBlur_2_730"/>
</filter>
</defs>
</svg>
